<svg width="30" height="30" viewBox="0 0 30 30" fill="none" xmlns="http://www.w3.org/2000/svg">
<path d="M15 5.25058L1.3175 10.3816L15 17.2229L21.5168 13.9645L15.4033 12.0953C15.2774 12.1557 15.1396 12.1872 15 12.1875C14.7513 12.1875 14.5129 12.0887 14.3371 11.9129C14.1612 11.7371 14.0625 11.4986 14.0625 11.25C14.0625 11.0014 14.1612 10.7629 14.3371 10.5871C14.5129 10.4113 14.7513 10.3125 15 10.3125L14.8449 10.8165L15.9311 11.1507C15.9312 11.1518 15.9314 11.1529 15.9315 11.154L17.5343 11.6441L26.6601 14.4518V15.1635C26.5339 15.2494 26.4306 15.3648 26.3591 15.4997C26.2876 15.6346 26.2501 15.7849 26.25 15.9376C26.2501 16.0937 26.2893 16.2474 26.3639 16.3845C26.4386 16.5217 26.5463 16.6381 26.6773 16.7231C26.2506 18.3359 26.25 21.9951 26.25 23.4375C27.1875 24.0466 27.1875 24.0688 28.125 23.4375C28.125 21.9953 28.1245 18.3367 27.6978 16.7236C27.8289 16.6385 27.9366 16.5221 28.0112 16.3848C28.0858 16.2475 28.1249 16.0937 28.125 15.9375C28.1249 15.7847 28.0876 15.6342 28.0161 15.4991C27.9446 15.364 27.8412 15.2484 27.7148 15.1625V13.673L24.2388 12.6035L28.6824 10.3816L15 5.25058ZM7.00913 14.5898L6.2402 19.2035C7.77389 19.4041 9.60852 20.2955 11.2951 21.3496C12.2543 21.9492 13.1527 22.6072 13.8823 23.2457C14.3284 23.636 14.7013 24.0104 15 24.3787C15.2986 24.0103 15.6716 23.636 16.1176 23.2457C16.8473 22.6072 17.7456 21.9492 18.7048 21.3496C20.3914 20.2955 22.226 19.4041 23.7597 19.2035L22.9907 14.5898H22.6245L15 18.4021L7.37534 14.5898H7.00913Z" fill="#1B3975"/>
</svg>
