<svg width="20" height="23" viewBox="0 0 20 23" fill="none" xmlns="http://www.w3.org/2000/svg">
<path d="M12.25 17.668C12.45 17.668 12.625 17.5839 12.775 17.4156C12.925 17.2473 13 17.051 13 16.8267C13 16.6023 12.925 16.406 12.775 16.2377C12.625 16.0695 12.45 15.9853 12.25 15.9853C12.05 15.9853 11.875 16.0695 11.725 16.2377C11.575 16.406 11.5 16.6023 11.5 16.8267C11.5 17.051 11.575 17.2473 11.725 17.4156C11.875 17.5839 12.05 17.668 12.25 17.668ZM15 17.668C15.2 17.668 15.375 17.5839 15.525 17.4156C15.675 17.2473 15.75 17.051 15.75 16.8267C15.75 16.6023 15.675 16.406 15.525 16.2377C15.375 16.0695 15.2 15.9853 15 15.9853C14.8 15.9853 14.625 16.0695 14.475 16.2377C14.325 16.406 14.25 16.6023 14.25 16.8267C14.25 17.051 14.325 17.2473 14.475 17.4156C14.625 17.5839 14.8 17.668 15 17.668ZM17.75 17.668C17.95 17.668 18.125 17.5839 18.275 17.4156C18.425 17.2473 18.5 17.051 18.5 16.8267C18.5 16.6023 18.425 16.406 18.275 16.2377C18.125 16.0695 17.95 15.9853 17.75 15.9853C17.55 15.9853 17.375 16.0695 17.225 16.2377C17.075 16.406 17 16.6023 17 16.8267C17 17.051 17.075 17.2473 17.225 17.4156C17.375 17.5839 17.55 17.668 17.75 17.668ZM2 20.192C1.45 20.192 0.979002 19.9721 0.587002 19.5324C0.195002 19.0927 -0.000664969 18.5647 1.69779e-06 17.9484V2.24356C1.69779e-06 1.62658 0.196002 1.09822 0.588002 0.658485C0.980002 0.218748 1.45067 -0.000745947 2 1.90455e-06H16C16.55 1.90455e-06 17.021 0.21987 17.413 0.659607C17.805 1.09934 18.0007 1.62733 18 2.24356V9.75947C17.6833 9.5912 17.3583 9.44612 17.025 9.32422C16.6917 9.20232 16.35 9.1137 16 9.05836V2.24356H2V17.9484H8.05C8.1 18.3598 8.17934 18.7524 8.288 19.1263C8.39667 19.5002 8.52567 19.8555 8.675 20.192H2ZM2 16.8267V17.9484V2.24356V9.05836V8.97422V16.8267ZM4 15.7049H8.075C8.125 15.3123 8.20434 14.929 8.313 14.5551C8.42167 14.1811 8.54234 13.8166 8.675 13.4613H4V15.7049ZM4 11.2178H10.1C10.6333 10.6569 11.2293 10.1895 11.888 9.81556C12.5467 9.44163 13.2507 9.18923 14 9.05836V8.97422H4V11.2178ZM4 6.73067H14V4.48711H4V6.73067ZM15 22.4356C13.6167 22.4356 12.4373 21.8885 11.462 20.7944C10.4867 19.7003 9.99934 18.3777 10 16.8267C10 15.2749 10.4877 13.9519 11.463 12.8578C12.4383 11.7637 13.6173 11.217 15 11.2178C16.3833 11.2178 17.5627 11.7648 18.538 12.8589C19.5133 13.953 20.0007 15.2756 20 16.8267C20 18.3785 19.5123 19.7014 18.537 20.7955C17.5617 21.8896 16.3827 22.4363 15 22.4356Z" fill="#1B3975"/>
</svg>
