<svg width="22" height="19" viewBox="0 0 22 19" fill="none" xmlns="http://www.w3.org/2000/svg">
<path d="M19.25 0.375H2.75C2.25272 0.375 1.77581 0.572544 1.42417 0.924175C1.07254 1.27581 0.875 1.75272 0.875 2.25V17.25C0.875022 17.4418 0.924073 17.6304 1.01749 17.7979C1.11091 17.9654 1.2456 18.1062 1.40876 18.207C1.57192 18.3078 1.75814 18.3652 1.94974 18.3737C2.14133 18.3823 2.33193 18.3418 2.50344 18.2559L5 17.0081L7.49656 18.2559C7.65286 18.3341 7.82523 18.3749 8 18.3749C8.17477 18.3749 8.34714 18.3341 8.50344 18.2559L11 17.0081L13.4966 18.2559C13.6529 18.3341 13.8252 18.3749 14 18.3749C14.1748 18.3749 14.3471 18.3341 14.5034 18.2559L17 17.0081L19.4966 18.2559C19.6681 18.3418 19.8587 18.3823 20.0503 18.3737C20.2419 18.3652 20.4281 18.3078 20.5912 18.207C20.7544 18.1062 20.8891 17.9654 20.9825 17.7979C21.0759 17.6304 21.125 17.4418 21.125 17.25V2.25C21.125 1.75272 20.9275 1.27581 20.5758 0.924175C20.2242 0.572544 19.7473 0.375 19.25 0.375ZM18.875 15.4294L17.5034 14.7441C17.3471 14.6659 17.1748 14.6251 17 14.6251C16.8252 14.6251 16.6529 14.6659 16.4966 14.7441L14 15.9919L11.5034 14.7441C11.3471 14.6659 11.1748 14.6251 11 14.6251C10.8252 14.6251 10.6529 14.6659 10.4966 14.7441L8 15.9919L5.50344 14.7441C5.34714 14.6659 5.17477 14.6251 5 14.6251C4.82523 14.6251 4.65286 14.6659 4.49656 14.7441L3.125 15.4294V2.625H18.875V15.4294ZM4.92406 13.0312C5.05948 13.0905 5.20525 13.1226 5.35305 13.1255C5.50085 13.1284 5.64777 13.1022 5.78542 13.0483C5.92308 12.9944 6.04876 12.9139 6.15528 12.8114C6.26181 12.7089 6.34709 12.5864 6.40625 12.4509L6.60312 12H9.39688L9.59469 12.4509C9.71428 12.7244 9.93763 12.9392 10.2156 13.0481C10.4936 13.1569 10.8034 13.1508 11.0769 13.0312C11.3504 12.9117 11.5652 12.6883 11.674 12.4103C11.7828 12.1324 11.7768 11.8226 11.6572 11.5491L9.03219 5.54906C8.94468 5.34834 8.80049 5.17752 8.6173 5.05755C8.43412 4.93758 8.21991 4.87367 8.00094 4.87367C7.78197 4.87367 7.56775 4.93758 7.38457 5.05755C7.20139 5.17752 7.0572 5.34834 6.96969 5.54906L4.34469 11.5491C4.28537 11.6844 4.2533 11.8301 4.25032 11.9779C4.24733 12.1257 4.27349 12.2725 4.32729 12.4102C4.3811 12.5478 4.46149 12.6735 4.56389 12.7801C4.66628 12.8867 4.78867 12.972 4.92406 13.0312ZM8.4125 9.75H7.5875L8 8.80688L8.4125 9.75ZM11.75 9C11.75 8.70163 11.8685 8.41548 12.0795 8.2045C12.2905 7.99353 12.5766 7.875 12.875 7.875H13.625V7.125C13.625 6.82663 13.7435 6.54048 13.9545 6.3295C14.1655 6.11853 14.4516 6 14.75 6C15.0484 6 15.3345 6.11853 15.5455 6.3295C15.7565 6.54048 15.875 6.82663 15.875 7.125V7.875H16.625C16.9234 7.875 17.2095 7.99353 17.4205 8.2045C17.6315 8.41548 17.75 8.70163 17.75 9C17.75 9.29837 17.6315 9.58452 17.4205 9.79549C17.2095 10.0065 16.9234 10.125 16.625 10.125H15.875V10.875C15.875 11.1734 15.7565 11.4595 15.5455 11.6705C15.3345 11.8815 15.0484 12 14.75 12C14.4516 12 14.1655 11.8815 13.9545 11.6705C13.7435 11.4595 13.625 11.1734 13.625 10.875V10.125H12.875C12.5766 10.125 12.2905 10.0065 12.0795 9.79549C11.8685 9.58452 11.75 9.29837 11.75 9Z" fill="#1B3975"/>
</svg>
