<svg width="152" height="152" viewBox="0 0 152 152" fill="none" xmlns="http://www.w3.org/2000/svg">
<path d="M106.394 106.195L106.394 45.7861L45.9849 45.7861L45.9849 106.195L106.394 106.195Z" fill="#0089F1"/>
<path fill-rule="evenodd" clip-rule="evenodd" d="M129.047 70.3274H138.486C139.988 70.3274 141.428 70.924 142.49 71.9861C143.553 73.0482 144.149 74.4887 144.149 75.9907C144.149 77.4927 143.553 78.9332 142.49 79.9953C141.428 81.0574 139.988 81.654 138.486 81.654H129.047L129.047 92.9807H138.486C139.988 92.9807 141.428 93.5773 142.49 94.6394C143.553 95.7015 144.149 97.142 144.149 98.644C144.149 100.146 143.553 101.587 142.49 102.649C141.428 103.711 139.988 104.307 138.486 104.307H129.047V108.083C129.047 113.59 126.859 118.872 122.965 122.766C119.071 126.661 113.789 128.848 108.281 128.848H104.506V138.287C104.506 139.789 103.909 141.23 102.847 142.292C101.785 143.354 100.345 143.951 98.8426 143.951C97.3406 143.951 95.9001 143.354 94.838 142.292C93.7759 141.23 93.1793 139.789 93.1793 138.287V128.848H81.8526V138.287C81.8526 139.789 81.2559 141.23 80.1939 142.292C79.1318 143.354 77.6913 143.951 76.1893 143.951C74.6873 143.951 73.2468 143.354 72.1847 142.292C71.1226 141.23 70.5259 139.789 70.5259 138.287V128.848H59.1993V138.287C59.1993 139.789 58.6026 141.23 57.5405 142.292C56.4785 143.354 55.038 143.951 53.536 143.951C52.034 143.951 50.5935 143.354 49.5314 142.292C48.4693 141.23 47.8726 139.789 47.8726 138.287V128.848H44.0971C38.5897 128.848 33.3079 126.661 29.4136 122.766C25.5193 118.872 23.3316 113.59 23.3316 108.083V104.307H13.8927C12.3907 104.307 10.9502 103.711 9.88808 102.649C8.82601 101.587 8.22935 100.146 8.22935 98.644C8.22935 97.142 8.82601 95.7015 9.88808 94.6394C10.9502 93.5773 12.3907 92.9807 13.8927 92.9807H23.3316V81.654H13.8927C12.3907 81.654 10.9502 81.0574 9.88808 79.9953C8.82601 78.9332 8.22935 77.4927 8.22935 75.9907C8.22935 74.4887 8.82601 73.0482 9.88808 71.9861C10.9502 70.924 12.3907 70.3274 13.8927 70.3274H23.3316V59.0007H13.8927C12.3907 59.0007 10.9502 58.404 9.88808 57.342C8.82601 56.2799 8.22935 54.8394 8.22935 53.3374C8.22935 51.8354 8.82601 50.3949 9.88808 49.3328C10.9502 48.2707 12.3907 47.6741 13.8927 47.6741H23.3316L23.3316 43.8985C23.3316 38.3911 25.5193 33.1093 29.4136 29.2151C33.3079 25.3208 38.5897 23.133 44.0971 23.133L47.8726 23.133V13.6941C47.8726 12.1921 48.4693 10.7516 49.5314 9.68951C50.5935 8.62743 52.034 8.03076 53.536 8.03076C55.038 8.03076 56.4785 8.62743 57.5405 9.68951C58.6026 10.7516 59.1993 12.1921 59.1993 13.6941V23.133H70.5259V13.6941C70.5259 12.1921 71.1226 10.7516 72.1847 9.68951C73.2468 8.62743 74.6873 8.03076 76.1893 8.03076C77.6913 8.03076 79.1318 8.62743 80.1939 9.68951C81.2559 10.7516 81.8526 12.1921 81.8526 13.6941V23.133L93.1793 23.133V13.6941C93.1793 12.1921 93.7759 10.7516 94.838 9.68951C95.9001 8.62743 97.3406 8.03076 98.8426 8.03076C100.345 8.03076 101.785 8.62743 102.847 9.68951C103.909 10.7516 104.506 12.1921 104.506 13.6941V23.133H108.281C113.789 23.133 119.071 25.3208 122.965 29.2151C126.859 33.1093 129.047 38.3911 129.047 43.8985V47.6741H138.486C139.988 47.6741 141.428 48.2707 142.49 49.3328C143.553 50.3949 144.149 51.8354 144.149 53.3374C144.149 54.8394 143.553 56.2799 142.49 57.342C141.428 58.404 139.988 59.0007 138.486 59.0007H129.047V70.3274ZM108.281 34.4596C113.492 34.4596 117.72 38.6882 117.72 43.8985L117.72 108.083C117.72 113.293 113.492 117.522 108.281 117.522L44.0971 117.522C38.8868 117.522 34.6582 113.293 34.6582 108.083L34.6582 43.8985C34.6582 38.6882 38.8868 34.4596 44.0971 34.4596L108.281 34.4596Z" fill="#0089F1"/>
</svg>
