<svg width="81" height="97" viewBox="0 0 81 97" fill="none" xmlns="http://www.w3.org/2000/svg">
<path d="M4.72647 0V86.4353H0V96.0392H18.9059V86.4353H14.1794V62.4255H75.6236C76.8771 62.4255 78.0793 61.9196 78.9657 61.019C79.8521 60.1185 80.35 58.8971 80.35 57.6236V9.60392C80.35 8.33037 79.8521 7.10897 78.9657 6.20842C78.0793 5.30788 76.8771 4.80196 75.6236 4.80196H14.1794V0H4.72647ZM23.6324 14.4059V24.0098H33.0853V14.4059H42.5382V24.0098H51.9912V14.4059H61.4441V24.0098H70.8971V33.6137H61.4441V43.2177H70.8971V52.8216H61.4441V43.2177H51.9912V52.8216H42.5382V43.2177H33.0853V52.8216H23.6324V43.2177H14.1794V33.6137H23.6324V24.0098H14.1794V14.4059H23.6324Z" fill="#F8F8F8"/>
</svg>
