<svg width="116" height="90" viewBox="0 0 116 90" fill="none" xmlns="http://www.w3.org/2000/svg">
<path d="M50.4583 89.3333C50.4583 89.3333 43.25 89.3333 43.25 81.8889C43.25 74.4444 50.4583 52.1111 79.2917 52.1111C108.125 52.1111 115.333 74.4444 115.333 81.8889C115.333 89.3333 108.125 89.3333 108.125 89.3333H50.4583ZM79.2917 44.6667C85.027 44.6667 90.5274 42.3137 94.5828 38.1254C98.6383 33.9371 100.917 28.2565 100.917 22.3333C100.917 16.4102 98.6383 10.7296 94.5828 6.54128C90.5274 2.35297 85.027 0 79.2917 0C73.5564 0 68.0559 2.35297 64.0005 6.54128C59.945 10.7296 57.6667 16.4102 57.6667 22.3333C57.6667 28.2565 59.945 33.9371 64.0005 38.1254C68.0559 42.3137 73.5564 44.6667 79.2917 44.6667V44.6667Z" fill="white"/>
<path fill-rule="evenodd" clip-rule="evenodd" d="M37.5987 89.3328C36.5301 87.0088 35.9971 84.4607 36.0417 81.8884C36.0417 71.8012 40.9433 61.4162 49.997 54.195C45.478 52.757 40.77 52.0538 36.0417 52.1106C7.20833 52.1106 0 74.4439 0 81.8884C0 89.3328 7.20833 89.3328 7.20833 89.3328H37.5987Z" fill="white"/>
<path d="M32.4375 44.6666C37.2169 44.6666 41.8006 42.7057 45.1801 39.2155C48.5597 35.7252 50.4583 30.9914 50.4583 26.0554C50.4583 21.1195 48.5597 16.3857 45.1801 12.8954C41.8006 9.40514 37.2169 7.44434 32.4375 7.44434C27.6581 7.44434 23.0744 9.40514 19.6948 12.8954C16.3153 16.3857 14.4167 21.1195 14.4167 26.0554C14.4167 30.9914 16.3153 35.7252 19.6948 39.2155C23.0744 42.7057 27.6581 44.6666 32.4375 44.6666V44.6666Z" fill="white"/>
</svg>
