<svg width="95" height="90" viewBox="0 0 95 90" fill="none" xmlns="http://www.w3.org/2000/svg">
<path d="M93.0338 44.2626L49.8702 0.985633C49.5595 0.67319 49.1903 0.42531 48.7839 0.256183C48.3775 0.0870551 47.9419 0 47.502 0C47.062 0 46.6264 0.0870551 46.22 0.256183C45.8136 0.42531 45.4445 0.67319 45.1337 0.985633L1.97008 44.2626C0.712582 45.5244 0 47.2382 0 49.0256C0 52.7372 3.00751 55.7548 6.70665 55.7548H11.2546V86.6354C11.2546 88.4965 12.7531 90 14.6079 90H40.7953V66.4479H52.532V90H80.396C82.2508 90 83.7493 88.4965 83.7493 86.6354V55.7548H88.2973C90.0787 55.7548 91.7868 55.0504 93.0443 53.7781C95.6536 51.1495 95.6536 46.8912 93.0338 44.2626Z" fill="#F8F8F8"/>
</svg>
