<svg width="152" height="152" viewBox="0 0 152 152" fill="none" xmlns="http://www.w3.org/2000/svg">
<path d="M112.372 128.397L112.372 24.569C112.372 21.0937 109.554 18.2764 106.079 18.2764L46.2995 18.2764C42.8242 18.2764 40.0069 21.0937 40.0069 24.569L40.0069 128.397C40.0069 131.872 42.8242 134.689 46.2995 134.689H106.079C109.554 134.689 112.372 131.872 112.372 128.397Z" fill="#A25DDA" stroke="black" stroke-linecap="round" stroke-linejoin="round"/>
<path d="M24.2754 112.665L128.103 112.665C131.578 112.665 134.396 109.848 134.396 106.372L134.396 46.5929C134.396 43.1176 131.578 40.3003 128.103 40.3003L24.2754 40.3003C20.8001 40.3003 17.9828 43.1176 17.9828 46.5929L17.9828 106.372C17.9828 109.848 20.8001 112.665 24.2754 112.665Z" fill="#A25DDA" stroke="black" stroke-linecap="round" stroke-linejoin="round"/>
<path d="M82.5763 95.7696L61.968 80.2269M61.968 95.7696L82.5763 80.2269M91.9207 99.9227L91.9207 74.4063L60.4578 62.1987L82.5763 53.043" stroke="#F8F8F8" stroke-width="2" stroke-linecap="round" stroke-linejoin="round"/>
</svg>
