<svg width="152" height="152" viewBox="0 0 152 152" fill="none" xmlns="http://www.w3.org/2000/svg">
<path d="M144.918 76.2943C144.918 71.3389 142.661 66.7109 138.966 62.766C135.27 58.8217 130.123 55.445 123.889 52.6301C122.583 52.0402 121.225 51.4768 119.825 50.9382C120.055 49.4857 120.245 48.027 120.393 46.5639C120.563 44.8619 120.668 43.2013 120.706 41.5878C120.821 36.7445 120.33 32.3179 119.154 28.4383C117.585 23.2658 114.705 18.9976 110.414 16.5199C106.122 14.0422 100.986 13.6824 95.7216 14.9103C90.4579 16.1388 84.9601 18.9077 79.4047 22.9C78.2396 23.7377 77.071 24.6326 75.9026 25.5771C74.7619 24.6531 73.5954 23.7616 72.4043 22.9035C66.8492 18.9109 61.3514 16.1421 56.0874 14.9138C50.8235 13.6856 45.687 14.0457 41.3961 16.5235C37.1044 19.0012 34.224 23.2693 32.6563 28.4418C31.0877 33.6146 30.737 39.7605 31.4169 46.5674C31.5596 47.9944 31.7502 49.4522 31.9838 50.9353C30.611 51.4616 29.2534 52.0268 27.9127 52.6301C21.6771 55.445 16.5309 58.8214 12.8352 62.766C9.13991 66.7106 6.88284 71.3392 6.88284 76.2943C6.88284 81.2491 9.13991 85.8777 12.8352 89.8223C16.5311 93.7665 21.6774 97.1433 27.9127 99.9581C29.2532 100.561 30.6106 101.127 31.9832 101.653C31.7502 103.134 31.5593 104.591 31.4169 106.017C30.7373 112.824 31.088 118.97 32.6563 124.142C34.2243 129.315 37.105 133.584 41.3961 136.061C45.6879 138.539 50.8238 138.899 56.0874 137.671C61.3511 136.442 66.8489 133.673 72.4043 129.681C73.5952 128.823 74.7618 127.931 75.9026 127.007C77.0442 127.933 78.212 128.825 79.4044 129.684C84.9598 133.677 90.4576 136.446 95.7213 137.674C100.985 138.902 106.122 138.542 110.413 136.064C114.704 133.587 117.585 129.318 119.153 124.146C120.329 120.266 120.82 115.84 120.706 110.997C120.668 109.382 120.563 107.721 120.393 106.02C120.25 104.592 120.059 103.133 119.825 101.649C121.195 101.123 122.55 100.559 123.889 99.957C130.124 97.1421 135.271 93.7656 138.967 89.8211C142.662 85.8765 144.918 81.2479 144.918 76.2931L144.918 76.2943ZM139.406 76.2943C139.406 79.5994 137.954 82.8401 134.943 86.0535C131.933 89.2665 127.376 92.3354 121.62 94.934C120.681 95.3566 119.733 95.7585 118.776 96.1392C117.371 89.822 115.216 83.1313 112.337 76.2925C115.216 69.4552 117.37 62.7654 118.775 56.4493C119.751 56.8393 120.703 57.2398 121.621 57.6546C127.377 60.2532 131.934 63.322 134.944 66.5354C137.954 69.7487 139.406 72.9892 139.406 76.2949L139.406 76.2943ZM115.202 39.8396C115.207 40.3717 115.204 40.9123 115.191 41.4613C115.159 42.9243 115.065 44.4454 114.907 46.0164C114.807 47.0211 114.679 48.0478 114.527 49.0911C108.355 47.1485 101.483 45.6695 94.1217 44.7428C89.6382 38.8293 84.9206 33.6173 80.1513 29.2423C80.9611 28.6021 81.785 27.9798 82.6225 27.3761C87.7507 23.6905 92.6867 21.2792 96.9749 20.2784C101.263 19.2778 104.795 19.6412 107.658 21.2936C110.52 22.946 112.6 25.8243 113.878 30.0376C114.716 32.8029 115.168 36.1139 115.202 39.8393L115.202 39.8396ZM115.202 112.745C115.168 116.471 114.716 119.782 113.878 122.547C112.6 126.761 110.52 129.638 107.658 131.291C104.795 132.943 101.263 133.307 96.9749 132.306C92.687 131.306 87.7507 128.894 82.6225 125.209C81.7849 124.605 80.9608 123.983 80.1507 123.343C84.9194 118.969 89.6359 113.758 94.1187 107.846C101.482 106.92 108.354 105.439 114.527 103.497C114.679 104.539 114.808 105.565 114.907 106.568C115.061 108.083 115.156 109.602 115.192 111.124C115.204 111.664 115.208 112.205 115.203 112.745H115.202ZM113.538 98.0208C108.985 99.4868 103.96 100.701 98.5836 101.606C100.56 98.68 102.433 95.6846 104.198 92.6259C105.964 89.5695 107.621 86.4518 109.166 83.2785C111.07 88.3873 112.531 93.3447 113.538 98.0208H113.538ZM113.537 54.5674C112.53 59.2426 111.07 64.1995 109.166 69.3068C107.621 66.1336 105.964 63.0158 104.198 59.9594C102.434 56.9021 100.562 53.9079 98.5869 50.9824C103.962 51.888 108.985 53.1015 113.538 54.5674H113.537ZM106.323 76.2925C104.344 80.778 102.044 85.3311 99.424 89.8698C96.8023 94.4101 94.0084 98.6804 91.1119 102.637C86.237 103.167 81.1426 103.452 75.9005 103.452C70.6614 103.452 65.5691 103.168 60.6963 102.638C57.8003 98.6815 55.007 94.4119 52.3859 89.873C49.7652 85.3335 47.4647 80.7792 45.4861 76.2928C47.4647 71.8058 49.7652 67.2515 52.3859 62.712C55.0061 58.174 57.7985 53.9061 60.6933 49.9507C65.567 49.4212 70.6602 49.1366 75.9008 49.1366C81.1438 49.1366 86.2388 49.4212 91.1142 49.9512C94.0099 53.9076 96.8035 58.1763 99.424 62.7153C102.044 67.2542 104.344 71.8073 106.322 76.2925H106.323ZM98.0294 76.6653L88.2905 60.8841L78.5508 76.6653L88.2905 92.4466L98.0297 76.6653H98.0294ZM86.4862 43.995C82.9634 43.747 79.4329 43.6234 75.9014 43.6242C72.3034 43.6242 68.7715 43.7511 65.3228 43.9953C68.7945 39.7921 72.3577 36.0481 75.9041 32.8377C79.4501 36.0481 83.0139 39.7921 86.4862 43.9953V43.995ZM86.4833 108.594C83.0115 112.795 79.4493 116.538 75.9038 119.747C72.3583 116.538 68.796 112.795 65.3251 108.594C68.845 108.842 72.3725 108.965 75.9011 108.964C79.5009 108.964 83.0334 108.837 86.4833 108.594V108.594ZM84.0073 57.3289H64.7762L54.5477 73.903H73.778L84.0073 57.3289ZM83.9973 95.9864L73.7709 79.4162H54.5498L64.7762 95.9867H83.9973V95.9864ZM71.656 29.2418C66.8864 33.6173 62.1699 38.8287 57.6864 44.7416C50.3256 45.6678 43.455 47.1473 37.2822 49.0894C37.1318 48.0481 37.0029 47.0228 36.9026 46.02C36.2752 39.736 36.6548 34.2547 37.932 30.0411C39.2092 25.8272 41.2905 22.9502 44.1529 21.2975C47.0155 19.6451 50.5477 19.2814 54.8356 20.2819C59.1235 21.2824 64.0598 23.6941 69.188 27.3796C70.0244 27.9821 70.8472 28.6031 71.656 29.2421V29.2418ZM71.6551 123.343C70.8292 123.994 70.0062 124.617 69.188 125.205C64.06 128.89 59.1238 131.302 54.8359 132.302C50.548 133.303 47.0158 132.94 44.1532 131.288C41.2908 129.635 39.2095 126.757 37.9323 122.543C36.6551 118.33 36.2755 112.849 36.9029 106.565C37.0069 105.541 37.1332 104.518 37.2819 103.499C43.4561 105.442 50.3282 106.921 57.6906 107.847C62.1729 113.758 66.8882 118.969 71.6557 123.343L71.6551 123.343ZM53.2248 101.608C47.8488 100.702 42.8243 99.4886 38.271 98.0226C39.2777 93.3462 40.7392 88.3881 42.6429 83.2791C44.1891 86.4533 45.8466 89.572 47.6125 92.6294C49.3772 95.6874 51.2491 98.6822 53.2248 101.608V101.608ZM53.2219 50.9813C51.2471 53.9057 49.3761 56.8989 47.6125 59.9553C45.8468 63.0128 44.1892 66.1315 42.6429 69.3057C40.7395 64.1981 39.2783 59.2415 38.2715 54.5654C42.824 53.0994 47.8473 51.8871 53.2219 50.9816V50.9813ZM52.9711 76.4574L52.8472 76.658L52.9711 76.8577V76.4577V76.4574ZM39.4715 76.2922C36.5926 83.1325 34.4379 89.8234 33.0336 96.1416C32.074 95.7602 31.123 95.3576 30.1812 94.934C24.4256 92.3354 19.8693 89.2665 16.8586 86.0532C13.8481 82.8401 12.3957 79.5994 12.3957 76.2943C12.3957 72.9889 13.8481 69.7481 16.8586 66.5351C19.869 63.322 24.4256 60.2532 30.1815 57.6546C31.1234 57.2311 32.0744 56.8284 33.0338 56.4467C34.4385 62.7636 36.5929 69.454 39.4715 76.2928V76.2922Z" fill="#00BF57"/>
</svg>
