<svg width="152" height="153" viewBox="0 0 152 153" fill="none" xmlns="http://www.w3.org/2000/svg">
<path d="M74.1248 118.659L81.0467 82.1615L116.285 69.891L112.195 57.9351L77.2711 70.2056L48.9545 45.6646L40.7741 55.1034L69.0908 79.6445L62.1689 116.142L74.1248 118.659Z" fill="#EF6C00"/>
<path d="M91.7441 76.4986C91.7441 67.6889 84.8222 60.7671 76.0126 60.7671C67.203 60.7671 60.2812 67.6889 60.2812 76.4986C60.2812 85.3082 67.203 92.23 76.0126 92.23C84.8222 92.23 91.7441 85.3082 91.7441 76.4986ZM69.72 76.4986C69.72 73.0376 72.5517 70.206 76.0126 70.206C79.4736 70.206 82.3052 73.0376 82.3052 76.4986C82.3052 79.9595 79.4736 82.7911 76.0126 82.7911C72.5517 82.7911 69.72 79.9595 69.72 76.4986Z" fill="#FF9800"/>
<path d="M66.5737 129.042C69.72 129.671 72.8663 129.986 76.0126 129.986C79.1589 129.986 82.3052 129.671 85.4515 129.042L93.0026 139.424C93.9465 140.683 95.8343 141.312 97.4074 140.368L120.69 126.839C122.263 125.895 122.892 124.322 121.949 122.749L116.914 111.108C121.005 106.388 124.151 100.725 126.353 94.747L139.253 93.4885C140.826 93.1739 142.085 91.9154 142.085 90.3422L142.085 63.2841C142.085 61.711 140.826 60.1378 139.253 60.1378L126.353 58.25C124.151 52.2721 121.005 46.6087 116.914 41.8893L122.263 30.248C122.892 28.6749 122.263 26.7871 120.69 26.1578L97.4074 12.6288C95.8343 11.6849 93.9465 12.3142 93.0026 13.5727L85.4515 23.9554C82.3052 23.3262 79.1589 23.0115 76.0126 23.0115C72.8663 23.0115 69.72 23.3262 66.5737 23.9554L59.0226 13.5727C58.0788 12.3142 56.191 11.6849 54.6178 12.6288L31.3353 26.1578C29.7621 27.1017 29.1329 28.6749 30.0767 30.248L35.1108 41.8893C31.0206 46.6087 27.8743 52.2721 25.6719 58.25L12.7721 59.5086C11.199 59.8232 9.94046 61.0817 9.94046 62.6548L9.94046 89.713C9.94046 91.2861 11.199 92.8593 12.7721 92.8593L25.6719 94.1178C27.8743 100.096 31.0206 105.759 35.1108 110.479L29.7621 122.12C29.1329 123.693 29.7621 125.581 31.0206 126.21L54.3032 139.739C55.8763 140.683 57.7641 140.054 58.708 138.795L66.5737 129.042ZM41.4034 76.4985C41.4034 57.3061 56.8202 41.8893 76.0126 41.8893C95.205 41.8893 110.622 57.3061 110.622 76.4985C110.622 95.6909 95.205 111.108 76.0126 111.108C56.8202 111.108 41.4034 95.6909 41.4034 76.4985Z" fill="#FF9800"/>
</svg>
