<svg width="119" height="95" viewBox="0 0 119 95" fill="none" xmlns="http://www.w3.org/2000/svg">
<path d="M38.6748 65.3125C38.2304 65.3125 37.786 65.3774 37.362 65.5147C34.9523 66.2959 32.418 66.7969 29.7498 66.7969C27.0816 66.7969 24.5472 66.2959 22.1356 65.5147C21.7117 65.3774 21.2692 65.3125 20.8248 65.3125C9.28549 65.3125 -0.0615931 74.6789 -0.00023368 86.2088C0.0257976 91.0812 4.04019 95 8.92477 95H50.5748C55.4593 95 59.4737 91.0812 59.4998 86.2088C59.5611 74.6789 50.2141 65.3125 38.6748 65.3125ZM29.7498 59.375C39.6082 59.375 47.5998 51.4002 47.5998 41.5625C47.5998 31.7248 39.6082 23.75 29.7498 23.75C19.8914 23.75 11.8998 31.7248 11.8998 41.5625C11.8998 51.4002 19.8914 59.375 29.7498 59.375ZM110.075 0H38.6748C33.753 0 29.7498 4.12842 29.7498 9.20127V17.8125C34.1044 17.8125 38.1356 19.0705 41.6498 21.1152V11.875H107.1V65.3125H95.1998V53.4375H71.3998V65.3125H57.2239C60.7753 68.4093 63.3821 72.4987 64.6038 77.1875H110.075C114.997 77.1875 119 73.0591 119 67.9862V9.20127C119 4.12842 114.997 0 110.075 0Z" fill="white"/>
</svg>
